HIERARCHY
ROOT Hips
{
	OFFSET 0.000000 0.000000 0.000000
	CHANNELS 6 Xposition Yposition Zposition Xrotation Yrotation Zrotation
	JOINT LeftUpLeg_virtual
	{
		OFFSET 0.000000 0.000000 0.000000
		CHANNELS 3 Xrotation Yrotation Zrotation
		JOINT LeftUpLeg
		{
			OFFSET 11.394100 -6.187798 -0.413800
			CHANNELS 3 Xrotation Yrotation Zrotation
			JOINT LeftLeg
			{
				OFFSET 0.430247 -32.302673 3.732800
				CHANNELS 3 Xrotation Yrotation Zrotation
				JOINT LeftFoot
				{
					OFFSET -0.430247 -48.264931 -6.423300
					CHANNELS 3 Xrotation Yrotation Zrotation
					JOINT LeftToeBase
					{
						OFFSET 4.230900 -16.068199 23.438400
						CHANNELS 3 Xrotation Yrotation Zrotation
						JOINT LeftToe_End
						{
							OFFSET 4.510700 0.695400 19.974600
							CHANNELS 3 Xrotation Yrotation Zrotation
							End Site
							{
								OFFSET 0 0 0
							}
						}
					}
				}
			}
		}
	}
	JOINT RightUpLeg_virtual
	{
		OFFSET 0.000000 0.000000 0.000000
		CHANNELS 3 Xrotation Yrotation Zrotation
		JOINT RightUpLeg
		{
			OFFSET -11.333700 -6.187798 -0.413800
			CHANNELS 3 Xrotation Yrotation Zrotation
			JOINT RightLeg
			{
				OFFSET -0.430392 -32.302628 3.733000
				CHANNELS 3 Xrotation Yrotation Zrotation
				JOINT RightFoot
				{
					OFFSET 0.430392 -48.264973 -6.423500
					CHANNELS 3 Xrotation Yrotation Zrotation
					JOINT RightToeBase
					{
						OFFSET -4.230900 -16.068199 23.438400
						CHANNELS 3 Xrotation Yrotation Zrotation
						JOINT RightToe_End
						{
							OFFSET -4.510700 0.695400 19.974600
							CHANNELS 3 Xrotation Yrotation Zrotation
							End Site
							{
								OFFSET 0 0 0
							}
						}
					}
				}
			}
		}
	}
	JOINT Spine_virtual
	{
		OFFSET 0.000000 0.000000 0.000000
		CHANNELS 3 Xrotation Yrotation Zrotation
		JOINT Spine
		{
			OFFSET -0.002400 12.777504 0.315300
			CHANNELS 3 Xrotation Yrotation Zrotation
			JOINT Spine1
			{
				OFFSET -0.002067 5.816869 0.032633
				CHANNELS 3 Xrotation Yrotation Zrotation
				JOINT Spine1_split
				{
					OFFSET -0.002067 5.816869 0.032633
					CHANNELS 3 Xrotation Yrotation Zrotation
					JOINT Spine2
					{
						OFFSET -0.002067 5.816869 0.032633
						CHANNELS 3 Xrotation Yrotation Zrotation
						JOINT Neck_virtual
						{
							OFFSET 0.000000 0.000000 0.000000
							CHANNELS 3 Xrotation Yrotation Zrotation
							JOINT Neck
							{
								OFFSET -0.003700 21.199493 -0.826900
								CHANNELS 3 Xrotation Yrotation Zrotation
								JOINT Head
								{
									OFFSET 0.000000 20.442200 4.834800
									CHANNELS 3 Xrotation Yrotation Zrotation
									JOINT HeadTop_End
									{
										OFFSET 0.000000 34.668396 4.968400
										CHANNELS 3 Xrotation Yrotation Zrotation
										End Site
										{
											OFFSET 0 0 0
										}
									}
								}
							}
						}
						JOINT LeftShoulder_virtual
						{
							OFFSET 0.000000 0.000000 0.000000
							CHANNELS 3 Xrotation Yrotation Zrotation
							JOINT LeftShoulder
							{
								OFFSET 3.288150 8.794197 -1.372250
								CHANNELS 3 Xrotation Yrotation Zrotation
								JOINT LeftShoulder_split
								{
									OFFSET 3.288150 8.794197 -1.372250
									CHANNELS 3 Xrotation Yrotation Zrotation
									JOINT LeftArm
									{
										OFFSET 11.953299 -2.279007 -0.146200
										CHANNELS 3 Xrotation Yrotation Zrotation
										JOINT LeftForeArm
										{
											OFFSET 18.448900 0.000000 0.000000
											CHANNELS 3 Xrotation Yrotation Zrotation
											JOINT LeftHand
											{
												OFFSET 29.527798 0.000000 0.000000
												CHANNELS 3 Xrotation Yrotation Zrotation
												End Site
												{
													OFFSET 0 0 0
												}
											}
										}
									}
								}
							}
						}
						JOINT RightShoulder_virtual
						{
							OFFSET 0.000000 0.000000 0.000000
							CHANNELS 3 Xrotation Yrotation Zrotation
							JOINT RightShoulder
							{
								OFFSET -3.249400 8.794197 -1.372250
								CHANNELS 3 Xrotation Yrotation Zrotation
								JOINT RightShoulder_split
								{
									OFFSET -3.249400 8.794197 -1.372250
									CHANNELS 3 Xrotation Yrotation Zrotation
									JOINT RightArm
									{
										OFFSET -11.953299 -2.279007 -0.146200
										CHANNELS 3 Xrotation Yrotation Zrotation
										JOINT RightForeArm
										{
											OFFSET -18.448900 0.000000 0.000000
											CHANNELS 3 Xrotation Yrotation Zrotation
											JOINT RightHand
											{
												OFFSET -29.527802 0.000000 0.000000
												CHANNELS 3 Xrotation Yrotation Zrotation
												End Site
												{
													OFFSET 0 0 0
												}
											}
										}
									}
								}
							}
						}
					}
				}
			}
		}
	}
}
MOTION
Frames: 5
Frame Time: 0.03333333
-2.407408 80.394684 -5.426399 0.000000 0.000000 0.000000 -1.212084 8.657009 -14.404434 -78.292505 9.625741 24.297066 94.861301 -11.066064 -5.824097 29.266223 -13.131856 33.366451 -45.968191 -7.191409 0.296683 0.000000 0.000000 0.000000 -11.848764 2.860469 -12.467475 -16.929266 -18.572194 -13.126690 53.934053 2.585639 2.181927 -25.248523 -2.407005 7.196047 10.013819 19.836560 -61.579182 0.000000 0.000000 0.000000 -7.850111 4.714542 -11.630144 14.093398 -0.127770 -4.549561 -4.589631 2.216929 4.006377 0.049175 0.338373 -0.272910 0.000000 0.000000 0.000000 -5.725567 5.522857 4.063007 11.732636 1.221286 3.837942 -52.932709 -45.928135 -53.572131 0.000000 0.000000 0.000000 -6.901963 4.052407 0.657864 4.199858 -3.486389 -10.134989 11.480518 -3.178234 4.793473 73.475521 -7.951372 -35.062015 -1.713453 -51.465400 -1.696022 0.000000 0.000000 0.000000 -3.566220 5.595825 3.618519 -3.544908 -23.739190 18.148279 15.743069 3.431192 7.616057 8.593330 13.735971 26.201949 -24.120798 61.907510 22.409282 0.000000 0.000000 0.000000 
-1.896756 81.133377 8.491070 0.000000 0.000000 0.000000 -2.990422 4.284202 -14.845006 -85.110086 12.960410 26.169981 74.219902 -4.510592 -11.887681 24.930151 -12.777029 35.065672 -38.994414 -6.593015 0.631090 0.000000 0.000000 0.000000 -10.627775 -1.926428 -13.255084 -12.574195 -17.633308 -13.437437 46.054784 2.463838 3.469763 -12.203863 -1.014800 11.125667 8.895473 20.973431 -60.951625 0.000000 0.000000 0.000000 -6.334552 2.578295 -13.607228 12.538474 1.488603 -4.035483 -4.159891 2.646266 4.133196 0.080208 0.631248 -0.095155 0.000000 0.000000 0.000000 -5.925780 5.974548 4.051712 13.028746 0.637185 3.405452 -54.578191 -43.681235 -52.483737 0.000000 0.000000 0.000000 -6.820582 4.567643 0.821752 4.687953 -1.879621 -9.251909 11.250497 -1.347266 3.193396 76.971492 -4.123370 -34.111324 -2.893685 -51.697186 -3.653071 0.000000 0.000000 0.000000 -4.505935 6.081983 3.341054 -4.460296 -20.470676 17.252026 12.258399 5.612420 3.905417 2.642591 24.688135 26.224655 -40.810155 73.510478 38.106626 0.000000 0.000000 0.000000 
-1.014245 81.858269 24.834070 0.000000 0.000000 0.000000 -3.650498 0.126170 -14.407036 -88.906025 14.846878 24.058518 51.190970 5.599715 -12.921122 21.839796 -12.572958 34.123984 -28.348955 -7.207260 4.713674 0.000000 0.000000 0.000000 -6.902310 -3.231305 -13.154058 -6.638532 -10.885144 -13.791898 39.730770 4.008808 3.478322 9.581391 3.638184 20.692772 -5.190280 25.116930 -47.610380 0.000000 0.000000 0.000000 -4.787973 0.277806 -14.842411 10.382018 3.442790 -2.606414 -3.845663 3.190097 3.773002 0.155364 0.722862 0.035385 0.000000 0.000000 0.000000 -6.154353 6.759332 3.319592 13.643159 -0.510859 3.569801 -56.116397 -40.890611 -52.721093 0.000000 0.000000 0.000000 -6.989689 5.467076 0.482738 5.277085 0.348887 -9.175943 10.236959 -1.623219 2.881618 79.890482 -0.524769 -35.435452 -5.336326 -52.283841 -6.721012 0.000000 0.000000 0.000000 -5.391562 6.887561 2.494480 -5.029831 -15.954176 16.215711 13.079583 2.759338 0.515859 -2.690463 38.117370 27.893138 -83.166624 81.776079 79.378669 0.000000 0.000000 0.000000 
1.180489 81.804741 41.260948 0.000000 0.000000 0.000000 -3.270441 -2.186176 -13.309932 -90.494904 14.553419 17.676169 35.982936 12.799355 -8.741542 24.456040 -12.112331 30.535013 -19.148427 -8.053326 11.887204 0.000000 0.000000 0.000000 -1.651374 -1.561945 -12.674988 -0.073065 -0.525636 -14.045105 37.713053 4.369100 2.710241 26.916445 7.002499 25.786114 -26.877389 22.137676 -22.039907 0.000000 0.000000 0.000000 -4.500745 -0.342206 -14.954617 8.034936 4.827103 -0.788002 -3.740726 3.437039 3.048173 0.254085 0.598952 0.031829 0.000000 0.000000 0.000000 -6.281076 7.387714 2.126663 13.747128 -1.635070 3.826648 -56.379175 -38.232373 -54.139474 0.000000 0.000000 0.000000 -7.218673 6.180323 -0.277926 5.912271 2.226850 -10.041033 9.437648 -3.229256 2.802004 80.053799 1.879877 -37.988006 -8.519894 -52.608050 -9.920414 0.000000 0.000000 0.000000 -5.999814 7.439687 1.322442 -5.073949 -11.229583 15.572623 17.495700 -2.891159 0.096591 -4.996032 48.435675 30.823845 -138.941784 83.590205 134.266547 0.000000 0.000000 0.000000 
4.206052 81.208694 58.227074 0.000000 0.000000 0.000000 -2.223112 -3.183447 -11.158392 -91.571383 14.207546 9.847100 32.481549 16.201402 -3.462325 31.303273 -11.163767 25.257302 -15.174066 -8.573086 19.967419 0.000000 0.000000 0.000000 3.378530 0.488402 -12.063808 3.661820 10.015886 -12.900161 41.310920 -1.248359 2.099601 32.687096 0.665355 23.174291 -39.966872 8.525257 2.405897 0.000000 0.000000 0.000000 -4.299021 1.683315 -13.775527 5.786322 4.968869 0.959450 -3.759241 3.193180 2.111506 0.141000 0.647806 0.064317 0.000000 0.000000 0.000000 -6.417608 7.387698 0.800740 13.409331 -2.535732 3.501879 -53.532683 -36.383011 -56.779018 0.000000 0.000000 0.000000 -7.343861 6.162587 -1.225381 6.483187 3.004751 -11.564646 9.216068 -5.427352 2.502896 75.469916 3.011528 -40.354728 -11.066685 -51.354826 -11.714822 0.000000 0.000000 0.000000 -6.329575 7.228886 0.115051 -4.449646 -7.017587 15.655740 21.355681 -7.080035 2.413626 -1.823663 52.822197 32.887211 174.038534 86.354546 -179.113952 0.000000 0.000000 0.000000 
